<?xml version="1.0" encoding="UTF-8"?>
<svg xmlns="http://www.w3.org/2000/svg" xmlns:xlink="http://www.w3.org/1999/xlink" version="1.1" width="1024px" height="1024px" style="shape-rendering: geometricprecision; text-rendering: geometricprecision; fill-rule: evenodd; clip-rule: evenodd; background: transparent;">

<g><path style="opacity:1" fill="#121212" d="M 532.5,204.5 C 532.5,216.833 532.5,229.167 532.5,241.5C 518.833,241.5 505.167,241.5 491.5,241.5C 491.5,229.167 491.5,216.833 491.5,204.5C 505.167,204.5 518.833,204.5 532.5,204.5 Z"/></g>
<g><path style="opacity:1" fill="#7b7b7b" d="M 532.5,204.5 C 518.833,204.5 505.167,204.5 491.5,204.5C 491.5,216.833 491.5,229.167 491.5,241.5C 505.167,241.5 518.833,241.5 532.5,241.5C 518.677,242.496 504.677,242.829 490.5,242.5C 490.5,229.5 490.5,216.5 490.5,203.5C 504.677,203.171 518.677,203.504 532.5,204.5 Z"/></g>
<g><path style="opacity:1" fill="#131313" d="M 271.5,258.5 C 284.833,258.5 298.167,258.5 311.5,258.5C 311.5,270.833 311.5,283.167 311.5,295.5C 298.167,295.5 284.833,295.5 271.5,295.5C 271.5,283.167 271.5,270.833 271.5,258.5 Z"/></g>
<g><path style="opacity:1" fill="#121212" d="M 327.5,258.5 C 450.167,258.5 572.833,258.5 695.5,258.5C 695.5,270.833 695.5,283.167 695.5,295.5C 641.167,295.5 586.833,295.5 532.5,295.5C 532.5,348.833 532.5,402.167 532.5,455.5C 518.5,455.5 504.5,455.5 490.5,455.5C 490.5,402.5 490.5,349.5 490.5,296.5C 436.336,295.501 382.003,295.168 327.5,295.5C 327.5,283.167 327.5,270.833 327.5,258.5 Z"/></g>
<g><path style="opacity:1" fill="#141313" d="M 711.5,258.5 C 725.167,258.5 738.833,258.5 752.5,258.5C 752.5,270.833 752.5,283.167 752.5,295.5C 738.833,295.5 725.167,295.5 711.5,295.5C 711.5,283.167 711.5,270.833 711.5,258.5 Z"/></g>
<g><path style="opacity:1" fill="#807f7f" d="M 271.5,258.5 C 271.5,270.833 271.5,283.167 271.5,295.5C 284.833,295.5 298.167,295.5 311.5,295.5C 298.01,296.496 284.344,296.829 270.5,296.5C 270.171,283.656 270.505,270.989 271.5,258.5 Z"/></g>
<g><path style="opacity:1" fill="#7d7d7d" d="M 327.5,258.5 C 327.5,270.833 327.5,283.167 327.5,295.5C 382.003,295.168 436.336,295.501 490.5,296.5C 435.833,296.5 381.167,296.5 326.5,296.5C 326.171,283.656 326.505,270.989 327.5,258.5 Z"/></g>
<g><path style="opacity:1" fill="#474746" d="M 753.5,312.5 C 741.087,312.187 728.753,312.521 716.5,313.5C 722.295,312.17 728.462,311.504 735,311.5C 741.343,311.5 747.509,311.834 753.5,312.5 Z"/></g>
<g><path style="opacity:1" fill="#858585" d="M 469.5,314.5 C 422.997,314.168 376.664,314.501 330.5,315.5C 329.957,315.44 329.624,315.107 329.5,314.5C 376.332,313.169 422.998,313.169 469.5,314.5 Z"/></g>
<g><path style="opacity:1" fill="#141414" d="M 348.5,403.5 C 340.35,404.493 332.017,404.826 323.5,404.5C 311.77,379.374 299.77,354.374 287.5,329.5C 275.18,354.469 263.18,379.469 251.5,404.5C 242.983,404.826 234.65,404.493 226.5,403.5C 240.119,372.928 254.286,342.594 269,312.5C 281.438,311.179 293.938,311.179 306.5,312.5C 320.785,342.735 334.785,373.069 348.5,403.5 Z"/></g>
<g><path style="opacity:1" fill="#121212" d="M 469.5,314.5 C 469.5,324.167 469.5,333.833 469.5,343.5C 427.094,343.827 384.761,343.494 342.5,342.5C 339.276,333.162 335.276,324.162 330.5,315.5C 376.664,314.501 422.997,314.168 469.5,314.5 Z"/></g>
<g><path style="opacity:1" fill="#121212" d="M 692.5,314.5 C 688.22,324.059 684.22,333.725 680.5,343.5C 638.5,343.5 596.5,343.5 554.5,343.5C 554.5,333.833 554.5,324.167 554.5,314.5C 600.5,314.5 646.5,314.5 692.5,314.5 Z"/></g>
<g><path style="opacity:1" fill="#141414" d="M 753.5,312.5 C 768.343,342.188 782.676,372.188 796.5,402.5C 788.567,404.468 780.234,405.135 771.5,404.5C 760.155,379.316 748.322,354.316 736,329.5C 723.307,354.07 711.474,379.07 700.5,404.5C 691.651,404.826 682.984,404.493 674.5,403.5C 687.956,373.255 701.956,343.255 716.5,313.5C 728.753,312.521 741.087,312.187 753.5,312.5 Z"/></g>
<g><path style="opacity:1" fill="#666666" d="M 692.5,314.5 C 646.5,314.5 600.5,314.5 554.5,314.5C 554.5,324.167 554.5,333.833 554.5,343.5C 553.506,333.681 553.173,323.681 553.5,313.5C 600.003,313.168 646.336,313.501 692.5,314.5 Z"/></g>
<g><path style="opacity:1" fill="#959596" d="M 695.5,295.5 C 641.669,296.499 587.669,296.832 533.5,296.5C 533.832,349.669 533.499,402.669 532.5,455.5C 532.5,402.167 532.5,348.833 532.5,295.5C 586.833,295.5 641.167,295.5 695.5,295.5 Z"/></g>
<g><path style="opacity:1" fill="#aeaeb0" d="M 342.5,342.5 C 384.761,343.494 427.094,343.827 469.5,343.5C 448.503,344.167 427.336,344.5 406,344.5C 384.489,344.5 363.323,343.833 342.5,342.5 Z"/></g>
<g><path style="opacity:1" fill="#646564" d="M 226.5,403.5 C 234.65,404.493 242.983,404.826 251.5,404.5C 242.991,405.821 234.325,405.821 225.5,404.5C 225.624,403.893 225.957,403.56 226.5,403.5 Z"/></g>
<g><path style="opacity:1" fill="#585858" d="M 348.5,403.5 C 349.043,403.56 349.376,403.893 349.5,404.5C 340.675,405.821 332.009,405.821 323.5,404.5C 332.017,404.826 340.35,404.493 348.5,403.5 Z"/></g>
<g><path style="opacity:1" fill="#5c5d5c" d="M 674.5,403.5 C 682.984,404.493 691.651,404.826 700.5,404.5C 691.658,405.822 682.658,405.822 673.5,404.5C 673.624,403.893 673.957,403.56 674.5,403.5 Z"/></g>
<g><path style="opacity:1" fill="#5f5e5f" d="M 796.5,402.5 C 797.404,403.209 797.737,404.209 797.5,405.5C 788.651,405.826 779.984,405.493 771.5,404.5C 780.234,405.135 788.567,404.468 796.5,402.5 Z"/></g>
<g><path style="opacity:1" fill="#dddede" d="M 292.5,418.5 C 325.329,417.502 358.329,417.168 391.5,417.5C 391.829,420.228 391.163,422.562 389.5,424.5C 389.366,422.708 389.699,421.042 390.5,419.5C 358.004,418.502 325.338,418.168 292.5,418.5 Z"/></g>
<g><path style="opacity:1" fill="#424140" d="M 183.5,419.5 C 215.996,418.502 248.662,418.168 281.5,418.5C 281.5,429.5 281.5,440.5 281.5,451.5C 280.506,441.013 280.172,430.346 280.5,419.5C 248.167,419.5 215.833,419.5 183.5,419.5 Z"/></g>
<g><path style="opacity:1" fill="#464545" d="M 292.5,418.5 C 325.338,418.168 358.004,418.502 390.5,419.5C 358.167,419.5 325.833,419.5 293.5,419.5C 293.825,427.352 293.492,435.018 292.5,442.5C 292.5,434.5 292.5,426.5 292.5,418.5 Z"/></g>
<g><path style="opacity:1" fill="#454544" d="M 730.5,446.5 C 729.507,437.682 729.173,428.682 729.5,419.5C 697.329,419.168 665.329,419.502 633.5,420.5C 633.167,420.5 632.833,420.5 632.5,420.5C 664.816,418.507 697.483,417.84 730.5,418.5C 730.5,427.833 730.5,437.167 730.5,446.5 Z"/></g>
<g><path style="opacity:1" fill="#121212" d="M 183.5,419.5 C 215.833,419.5 248.167,419.5 280.5,419.5C 280.172,430.346 280.506,441.013 281.5,451.5C 281.5,455.167 281.5,458.833 281.5,462.5C 281.5,467.167 281.5,471.833 281.5,476.5C 285.167,476.5 288.833,476.5 292.5,476.5C 292.5,471.167 292.5,465.833 292.5,460.5C 292.5,454.5 292.5,448.5 292.5,442.5C 293.492,435.018 293.825,427.352 293.5,419.5C 325.833,419.5 358.167,419.5 390.5,419.5C 389.699,421.042 389.366,422.708 389.5,424.5C 386.027,437.393 383.027,450.393 380.5,463.5C 358.741,470.309 337.074,477.309 315.5,484.5C 310.607,485.796 305.94,487.462 301.5,489.5C 296.458,490.677 291.458,492.01 286.5,493.5C 279.757,492.241 273.423,490.241 267.5,487.5C 265.485,486.076 263.152,485.41 260.5,485.5C 238.487,478.495 216.487,471.495 194.5,464.5C 190.629,449.553 186.962,434.553 183.5,419.5 Z"/></g>
<g><path style="opacity:1" fill="#121212" d="M 730.5,446.5 C 730.5,451.5 730.5,456.5 730.5,461.5C 730.5,466.5 730.5,471.5 730.5,476.5C 734.167,476.5 737.833,476.5 741.5,476.5C 741.5,466.833 741.5,457.167 741.5,447.5C 742.494,438.348 742.827,429.015 742.5,419.5C 774.833,419.5 807.167,419.5 839.5,419.5C 836.676,434.467 833.342,449.301 829.5,464C 798.246,474.14 766.913,483.974 735.5,493.5C 704.909,483.581 674.243,473.748 643.5,464C 640.804,451.666 637.804,439.499 634.5,427.5C 634.326,425.139 633.993,422.806 633.5,420.5C 665.329,419.502 697.329,419.168 729.5,419.5C 729.173,428.682 729.507,437.682 730.5,446.5 Z"/></g>
<g><path style="opacity:1" fill="#403f3f" d="M 741.5,418.5 C 774.338,418.168 807.004,418.502 839.5,419.5C 807.167,419.5 774.833,419.5 742.5,419.5C 742.827,429.015 742.494,438.348 741.5,447.5C 741.5,437.833 741.5,428.167 741.5,418.5 Z"/></g>
<g><path style="opacity:1" fill="#9a9999" d="M 632.5,420.5 C 632.833,420.5 633.167,420.5 633.5,420.5C 633.993,422.806 634.326,425.139 634.5,427.5C 633.076,425.485 632.41,423.152 632.5,420.5 Z"/></g>
<g><path style="opacity:1" fill="#111111" d="M 491.5,473.5 C 505.167,473.5 518.833,473.5 532.5,473.5C 532.5,505.5 532.5,537.5 532.5,569.5C 518.833,569.5 505.167,569.5 491.5,569.5C 491.5,537.5 491.5,505.5 491.5,473.5 Z"/></g>
<g><path style="opacity:1" fill="#acacab" d="M 292.5,460.5 C 292.5,465.833 292.5,471.167 292.5,476.5C 288.833,476.5 285.167,476.5 281.5,476.5C 281.5,471.833 281.5,467.167 281.5,462.5C 282.485,466.634 282.818,470.968 282.5,475.5C 285.5,475.5 288.5,475.5 291.5,475.5C 291.179,470.305 291.513,465.305 292.5,460.5 Z"/></g>
<g><path style="opacity:1" fill="#b0b0b0" d="M 741.5,418.5 C 741.5,428.167 741.5,437.833 741.5,447.5C 741.5,457.167 741.5,466.833 741.5,476.5C 737.833,476.5 734.167,476.5 730.5,476.5C 730.5,471.5 730.5,466.5 730.5,461.5C 731.486,465.97 731.819,470.637 731.5,475.5C 734.5,475.5 737.5,475.5 740.5,475.5C 740.17,456.326 740.503,437.326 741.5,418.5 Z"/></g>
<g><path style="opacity:1" fill="#5c5c5c" d="M 260.5,485.5 C 263.152,485.41 265.485,486.076 267.5,487.5C 264.848,487.59 262.515,486.924 260.5,485.5 Z"/></g>
<g><path style="opacity:1" fill="#bebdc0" d="M 315.5,484.5 C 311.37,487.324 306.703,488.991 301.5,489.5C 305.94,487.462 310.607,485.796 315.5,484.5 Z"/></g>
<g><path style="opacity:1" fill="#656464" d="M 340.5,529.5 C 340.5,525.833 340.5,522.167 340.5,518.5C 335.167,518.5 329.833,518.5 324.5,518.5C 324.5,522.167 324.5,525.833 324.5,529.5C 323.517,525.702 323.183,521.702 323.5,517.5C 329.5,517.5 335.5,517.5 341.5,517.5C 341.817,521.702 341.483,525.702 340.5,529.5 Z"/></g>
<g><path style="opacity:1" fill="#545453" d="M 699.5,529.5 C 699.5,525.833 699.5,522.167 699.5,518.5C 694.167,518.5 688.833,518.5 683.5,518.5C 683.5,522.167 683.5,525.833 683.5,529.5C 682.517,525.702 682.183,521.702 682.5,517.5C 688.5,517.5 694.5,517.5 700.5,517.5C 700.817,521.702 700.483,525.702 699.5,529.5 Z"/></g>
<g><path style="opacity:1" fill="#171615" d="M 340.5,529.5 C 335.167,529.5 329.833,529.5 324.5,529.5C 324.5,525.833 324.5,522.167 324.5,518.5C 329.833,518.5 335.167,518.5 340.5,518.5C 340.5,522.167 340.5,525.833 340.5,529.5 Z"/></g>
<g><path style="opacity:1" fill="#131111" d="M 699.5,529.5 C 694.167,529.5 688.833,529.5 683.5,529.5C 683.5,525.833 683.5,522.167 683.5,518.5C 688.833,518.5 694.167,518.5 699.5,518.5C 699.5,522.167 699.5,525.833 699.5,529.5 Z"/></g>
<g><path style="opacity:1" fill="#2e2d2d" d="M 491.5,473.5 C 491.5,505.5 491.5,537.5 491.5,569.5C 505.167,569.5 518.833,569.5 532.5,569.5C 518.677,570.496 504.677,570.829 490.5,570.5C 490.168,537.996 490.502,505.662 491.5,473.5 Z"/></g>
<g><path style="opacity:1" fill="#909091" d="M 307.5,545.5 C 327.66,544.503 347.993,544.17 368.5,544.5C 368.5,551.833 368.5,559.167 368.5,566.5C 377.349,566.174 386.016,566.507 394.5,567.5C 385.5,567.5 376.5,567.5 367.5,567.5C 367.5,560.167 367.5,552.833 367.5,545.5C 347.5,545.5 327.5,545.5 307.5,545.5 Z"/></g>
<g><path style="opacity:1" fill="#161616" d="M 737.5,544.5 C 743.167,544.5 748.833,544.5 754.5,544.5C 754.5,547.833 754.5,551.167 754.5,554.5C 748.833,554.5 743.167,554.5 737.5,554.5C 737.5,551.167 737.5,547.833 737.5,544.5 Z"/></g>
<g><path style="opacity:1" fill="#121212" d="M 307.5,545.5 C 327.5,545.5 347.5,545.5 367.5,545.5C 367.5,552.833 367.5,560.167 367.5,567.5C 376.5,567.5 385.5,567.5 394.5,567.5C 407.851,567.494 421.184,567.994 434.5,569C 458.528,577.681 481.528,588.514 503.5,601.5C 504.833,622.5 504.833,643.5 503.5,664.5C 484.323,655.905 464.99,647.905 445.5,640.5C 439.317,625.801 432.317,611.467 424.5,597.5C 382.839,596.5 341.172,596.167 299.5,596.5C 297.948,605.812 296.614,615.145 295.5,624.5C 276.79,624.875 258.123,624.208 239.5,622.5C 244.253,610.569 248.586,598.569 252.5,586.5C 270.931,585.846 289.265,585.179 307.5,584.5C 307.5,571.5 307.5,558.5 307.5,545.5 Z"/></g>
<g><path style="opacity:1" fill="#131312" d="M 656.5,545.5 C 676.5,545.5 696.5,545.5 716.5,545.5C 716.5,558.5 716.5,571.5 716.5,584.5C 734.735,585.179 753.069,585.846 771.5,586.5C 774.912,598.735 778.912,610.735 783.5,622.5C 770.5,623.167 757.5,623.833 744.5,624.5C 739.167,624.5 733.833,624.5 728.5,624.5C 726.834,615.168 725.167,605.835 723.5,596.5C 682.165,596.333 640.832,596.5 599.5,597C 592.039,610.754 584.706,624.587 577.5,638.5C 558.6,647.118 539.6,655.451 520.5,663.5C 519.503,643.007 519.169,622.34 519.5,601.5C 541.494,588.503 564.494,577.669 588.5,569C 601.479,567.918 614.479,567.418 627.5,567.5C 637.167,567.5 646.833,567.5 656.5,567.5C 656.5,560.167 656.5,552.833 656.5,545.5 Z"/></g>
<g><path style="opacity:1" fill="#1b1a1a" d="M 268.5,549.5 C 274.167,549.5 279.833,549.5 285.5,549.5C 285.5,554.167 285.5,558.833 285.5,563.5C 279.833,563.5 274.167,563.5 268.5,563.5C 268.5,558.833 268.5,554.167 268.5,549.5 Z"/></g>
<g><path style="opacity:1" fill="#b2b2b2" d="M 656.5,545.5 C 656.5,552.833 656.5,560.167 656.5,567.5C 646.833,567.5 637.167,567.5 627.5,567.5C 636.652,566.506 645.985,566.173 655.5,566.5C 655.175,559.313 655.509,552.313 656.5,545.5 Z"/></g>
<g><path style="opacity:1" fill="#8a8a8a" d="M 737.5,559.5 C 743.5,559.5 749.5,559.5 755.5,559.5C 755.5,563.167 755.5,566.833 755.5,570.5C 749.5,570.5 743.5,570.5 737.5,570.5C 737.5,566.833 737.5,563.167 737.5,559.5 Z"/></g>
<g><path style="opacity:1" fill="#131211" d="M 738.5,560.5 C 743.833,560.5 749.167,560.5 754.5,560.5C 754.5,563.5 754.5,566.5 754.5,569.5C 749.167,569.5 743.833,569.5 738.5,569.5C 738.5,566.5 738.5,563.5 738.5,560.5 Z"/></g>
<g><path style="opacity:1" fill="#444444" d="M 307.5,584.5 C 289.265,585.179 270.931,585.846 252.5,586.5C 270.47,584.513 288.803,583.846 307.5,584.5 Z"/></g>
<g><path style="opacity:1" fill="#494948" d="M 716.5,584.5 C 735.197,583.846 753.53,584.513 771.5,586.5C 753.069,585.846 734.735,585.179 716.5,584.5 Z"/></g>
<g><path style="opacity:1" fill="#434343" d="M 606.5,612.5 C 627.327,611.503 648.327,611.169 669.5,611.5C 669.5,612.5 669.5,613.5 669.5,614.5C 648.732,612.529 627.732,611.862 606.5,612.5 Z"/></g>
<g><path style="opacity:1" fill="#181717" d="M 354.5,611.5 C 375.511,611.167 396.511,611.5 417.5,612.5C 421.516,620.531 425.516,628.531 429.5,636.5C 426.333,636.833 423.167,637.167 420,637.5C 397.179,635.751 374.345,634.417 351.5,633.5C 352.066,626.104 353.066,618.771 354.5,611.5 Z"/></g>
<g><path style="opacity:1" fill="#141413" d="M 606.5,612.5 C 627.732,611.862 648.732,612.529 669.5,614.5C 670.674,620.399 671.341,626.399 671.5,632.5C 654.511,633.675 637.511,634.675 620.5,635.5C 613.646,635.735 606.979,636.402 600.5,637.5C 598.076,637.808 595.743,637.474 593.5,636.5C 597.862,628.438 602.195,620.438 606.5,612.5 Z"/></g>
<g><path style="opacity:1" fill="#151414" d="M 319.5,613.5 C 324.5,613.5 329.5,613.5 334.5,613.5C 334.5,617.5 334.5,621.5 334.5,625.5C 329.5,625.5 324.5,625.5 319.5,625.5C 319.5,621.5 319.5,617.5 319.5,613.5 Z"/></g>
<g><path style="opacity:1" fill="#151413" d="M 704.5,613.5 C 704.5,617.5 704.5,621.5 704.5,625.5C 699.5,625.5 694.5,625.5 689.5,625.5C 689.5,621.5 689.5,617.5 689.5,613.5C 694.5,613.5 699.5,613.5 704.5,613.5 Z"/></g>
<g><path style="opacity:1" fill="#a4a3a4" d="M 783.5,622.5 C 784.043,622.56 784.376,622.893 784.5,623.5C 771.183,624.499 757.85,624.833 744.5,624.5C 757.5,623.833 770.5,623.167 783.5,622.5 Z"/></g>
<g><path style="opacity:1" fill="#595858" d="M 319.5,613.5 C 319.5,617.5 319.5,621.5 319.5,625.5C 324.5,625.5 329.5,625.5 334.5,625.5C 329.36,626.488 324.026,626.821 318.5,626.5C 318.182,621.968 318.515,617.634 319.5,613.5 Z"/></g>
<g><path style="opacity:1" fill="#545354" d="M 704.5,613.5 C 705.485,617.634 705.818,621.968 705.5,626.5C 699.974,626.821 694.64,626.488 689.5,625.5C 694.5,625.5 699.5,625.5 704.5,625.5C 704.5,621.5 704.5,617.5 704.5,613.5 Z"/></g>
<g><path style="opacity:1" fill="#959597" d="M 620.5,635.5 C 614.072,637.126 607.405,637.793 600.5,637.5C 606.979,636.402 613.646,635.735 620.5,635.5 Z"/></g>
<g><path style="opacity:1" fill="#323131" d="M 519.5,601.5 C 519.169,622.34 519.503,643.007 520.5,663.5C 520.44,664.043 520.107,664.376 519.5,664.5C 518.172,643.337 518.172,622.337 519.5,601.5 Z"/></g>
<g><path style="opacity:1" fill="#131212" d="M 725.5,647.5 C 733.736,647.882 741.736,647.215 749.5,645.5C 766.69,644.936 783.856,643.936 801,642.5C 807.033,641.39 812.033,643.057 816,647.5C 820.146,662.102 823.98,676.769 827.5,691.5C 827.41,694.152 828.076,696.485 829.5,698.5C 829.5,699.5 829.5,700.5 829.5,701.5C 743.332,701.167 657.332,701.501 571.5,702.5C 566.997,702.501 562.663,703.334 558.5,705C 554.5,709.667 550.5,714.333 546.5,719C 523.167,719.667 499.833,719.667 476.5,719C 472.452,714.62 468.785,709.954 465.5,705C 459.634,703.213 453.634,702.213 447.5,702C 362.5,701.667 277.5,701.333 192.5,701C 198.05,683.723 202.883,666.223 207,648.5C 208.167,646 210,644.167 212.5,643C 289.846,647.584 367.179,652.584 444.5,658C 463.066,665.218 481.399,672.885 499.5,681C 507.144,682.914 514.81,682.914 522.5,681C 540.554,672.541 558.887,664.875 577.5,658C 626.852,654.444 676.185,650.944 725.5,647.5 Z"/></g>
<g><path style="opacity:1" fill="#666665" d="M 749.5,645.5 C 741.736,647.215 733.736,647.882 725.5,647.5C 733.325,646.508 741.325,645.841 749.5,645.5 Z"/></g>
<g><path style="opacity:1" fill="#504f50" d="M 827.5,691.5 C 828.924,693.515 829.59,695.848 829.5,698.5C 828.076,696.485 827.41,694.152 827.5,691.5 Z"/></g>
<g><path style="opacity:1" fill="#aeadae" d="M 829.5,698.5 C 830.434,699.568 830.768,700.901 830.5,702.5C 744.167,702.5 657.833,702.5 571.5,702.5C 657.332,701.501 743.332,701.167 829.5,701.5C 829.5,700.5 829.5,699.5 829.5,698.5 Z"/></g>
</svg>